<svg id="Warstwa_1" data-name="Warstwa 1" xmlns="http://www.w3.org/2000/svg" viewBox="0 0 235.71 346.98"><defs><style>.cls-1{fill:#b2a1aa;}.cls-2{fill:#f7faf2;}.cls-3{fill:#faf8e3;}.cls-4{fill:#f8b752;}.cls-5{fill:#f2cd6d;}.cls-6{fill:#d57f68;}.cls-7{fill:#81cadb;}.cls-8{fill:#b29a91;}.cls-9{fill:#e76a46;}.cls-10{fill:#f5f2b6;}.cls-11{fill:#f3f5d9;}.cls-12{fill:#e39556;}.cls-13{fill:#dd8c7e;}.cls-14{fill:#e4efe2;}.cls-15{fill:#b4dee3;}.cls-16{fill:#d9edef;}.cls-17{fill:#92957c;}.cls-18{fill:#aedbe1;}.cls-19{fill:#c7e2cb;}.cls-20{fill:#ef7f5b;}.cls-21{fill:#f9b972;}.cls-22{fill:#f49f6c;}.cls-23{fill:#f3955f;}.cls-24{fill:#fcd892;}.cls-25{fill:#fac784;}.cls-26{fill:#f3ecd0;}.cls-27{fill:#80adcf;}.cls-28{fill:#6391c8;}.cls-29{fill:#2c4b83;}.cls-30{fill:#2473a8;}.cls-31{fill:#8ccbb9;}.cls-32{fill:#b0d5a9;}.cls-33{fill:#f4dd74;}.cls-34{fill:#deb37b;}.cls-35{fill:#eeb366;}.cls-36{fill:#e16f68;}.cls-37{fill:#40b3e0;}.cls-38{fill:#46bee7;}.cls-39{fill:#d9d3c5;}.cls-40{fill:#3990ca;}.cls-41{fill:#c5736a;}.cls-42{fill:#e1e188;}.cls-43{fill:#d7e6b8;}.cls-44{fill:#cc948c;}.cls-45{fill:#fbfaea;}.cls-46{fill:#8bced7;}.cls-47{fill:#99d1c7;}.cls-48{fill:#ec6454;}.cls-49{fill:#ebdbbe;}.cls-50{fill:#cabebc;}.cls-51{fill:#c86a64;}.cls-52{fill:#fbf4d7;}.cls-53{fill:#4bb3b9;}.cls-54{fill:#4c999c;}.cls-55{fill:#284c9a;}.cls-56{fill:#3273b6;}.cls-57{fill:#76c7c9;}.cls-58{fill:#5ebfc2;}.cls-59{fill:#32a5dc;}.cls-60{fill:#a8b7cc;}.cls-61{fill:#458dbd;}.cls-62{fill:#397dc0;}.cls-63{fill:#df5664;}.cls-64{fill:#c15c84;}.cls-65{fill:#8eb8e0;}</style></defs><path class="cls-1" d="M296.64,556l2.61-2.55c5.48,8.85,14.05,23.17,19.52,32-4.2,3.75-10-3.87-12.17-8C302.85,570.54,298.72,563.77,296.64,556Z" transform="translate(-220.41 -277.13)"/><path class="cls-2" d="M222.32,378.83c.38-39.67,26.92-76.83,64.3-90.05,3.26,1,5.69,2.77,5.49,6.78-1.14,4.06-3.79,7-6.91,9.53A140.19,140.19,0,0,0,254.94,339c-4.83,6.13-6.56,14.08-11.17,20.36-6.34,6.14-9.14,14.82-14.57,21.6-1.63,2-3.58,4-6.33,2.58C220.88,382.51,221.35,380.55,222.32,378.83Z" transform="translate(-220.41 -277.13)"/><path class="cls-3" d="M353.08,279.75c11.85-.54,14.52,11,21.31,17.18a5.34,5.34,0,0,1,5.66,2.12c9.4,14.07,18,28.5,18.22,46.43-9.69,11.23-14.8,11.6-27.91,2-3.6-3.81-4.45-8.8-5.56-13.68-.32-11.22-6.38-20.16-11.15-29.59a12.93,12.93,0,0,1-1.39-2.59c-.33-3-2.38-5.12-3.88-7.51-1.16-4-4.95-6-6.59-9.65a5.29,5.29,0,0,1,.23-4.7A13.34,13.34,0,0,1,353.08,279.75Z" transform="translate(-220.41 -277.13)"/><path class="cls-4" d="M315.65,619.48c-6.66-9.51-3.07-20.1-2.73-30.26.09-3,3.16-4.69,6.24-4.91,11.88-.84,23.72-3,35.68-1.19,3.62,3.62,1,6.7-.75,9.86-4.43,5-1,11.57-2.94,17.1a13.81,13.81,0,0,1-4.57,7C336.49,620.89,326.07,620.26,315.65,619.48Z" transform="translate(-220.41 -277.13)"/><path class="cls-5" d="M258.79,483.14c-6.16-7.93-13.88-14.69-17.35-24.64-1-2.2-1.12-4.65-2-6.88-1.16-5.24-1.81-10.71,3.76-13.54,6.83-3.46,10.08,3.14,14.41,6.48,4.2,4.23,6.31,10,10,14.6,2.53,4.61,6.44,8.46,7.2,14,.38,3.12,2,6.15.67,9.39a33.73,33.73,0,0,1-5.25,7.54,6.26,6.26,0,0,1-2.84.88C263.14,490,261.45,486,258.79,483.14Z" transform="translate(-220.41 -277.13)"/><path class="cls-6" d="M423.08,312.81c35.85,30.08,41.77,90.3,21.44,132.22-1.57,3.23-3.9,6.07-5.87,9.09a1.94,1.94,0,0,1-2.73.12c-2.27-9.45,3.17-16.87,6.47-24.72,10.85-25.86,8-51.25-1.76-76.53-1.34-3.48-2.87-6.85-7.54-5.92-9.26-7.14-10.53-19-15.6-28.62C416,315.7,417.45,310.79,423.08,312.81Z" transform="translate(-220.41 -277.13)"/><path class="cls-7" d="M395.69,346.16c-2.16-18.68-24.16-49.67-34.6-64.54,17.1-.9,31.14,4.95,41,16.21,3.1,3.54,3.53,6.85,8.56,8.81.41,1-5.76-.51-6.42.36-3.27,2.52-6.9,0-11.93,1,2.68,11.64,9.83,21.79,10.8,33.72-.74,6.68,2.2,13.85-2.53,20a3.46,3.46,0,0,1-3.36-.09C392.12,357,395.52,351.39,395.69,346.16Z" transform="translate(-220.41 -277.13)"/><path class="cls-8" d="M404.37,306a3.76,3.76,0,0,0,.2-1.79c9.37-4.41,13.27,3.65,18.51,8.64-2.68,1.07-4.27,2.75-2.74,5.84,4.51,9.06,9.07,18.1,13.6,27.15,5,2.09,6.61,6.82,7.29,11.45,2.82,19.26,3.81,38.6-.16,57.86-.83,4-2.36,7.71-5.64,10.34a4,4,0,0,1-3.56.45c-5.5-5.38-2.7-12-1.36-17.55,5.57-23,2.74-44.79-6.74-66a38,38,0,0,0-5.17-10.08C415.09,322.81,405.2,317,404.37,306Z" transform="translate(-220.41 -277.13)"/><path class="cls-9" d="M346.2,615.18c.33-2.48.39-5.06,2.46-6.89,3.27-5.41-1.54-11.77,1.88-17.17,1.52-2.62,5.37-3.9,4.31-8,.42-.77.85-1.54,1.28-2.31,1.81.8,3.91,1.08,5.08,3a1.15,1.15,0,0,0,1.32.63c2.17,8.3,1.38,16.74,1.13,25.15-.2,6.54-3,11.14-9.54,12.6C349.59,622.14,344.29,623,346.2,615.18Z" transform="translate(-220.41 -277.13)"/><path class="cls-10" d="M241.75,451.78c-.1,2.24-.2,4.49-.31,6.73-7.42-9.79-13-20.46-14.81-32.92-2.67-17.6-6.54-35.33,6.49-50.83,1.22-1.45,2.27-2.7,4.23-2.71,3.86,2.61,3.21,6.75,3.39,10.6-2.89,7.5-1.84,15.66-3.56,23.36A257.32,257.32,0,0,0,241.75,451.78Z" transform="translate(-220.41 -277.13)"/><path class="cls-11" d="M237.44,372.58c-11.25,16-11.12,34.49-10.81,53-5.07-15.23-8.57-30.61-4.31-46.76,1.35,4.87,2.83,2.44,4.54.17,5.36-7.06,7.68-16.31,14.91-22a6.19,6.19,0,0,1,2.08,4.56C243.05,366,243,371,237.44,372.58Z" transform="translate(-220.41 -277.13)"/><path class="cls-12" d="M346.2,615.18c.85,4.52,4.78,5.32,7.94,7-11.74,3.38-23.64,1.22-35.46,1.06-1.87,0-3-1.7-3-3.8C325.22,613.4,335.89,615.65,346.2,615.18Z" transform="translate(-220.41 -277.13)"/><path class="cls-13" d="M436.42,454l2.23.08c-4.26,13-16.42,19.65-23,30.79-2.56.16-3.42,3.81-6.32,3.28a4.31,4.31,0,0,1-2.35-1.94c-1.73-4.93.51-8.5,3.75-11.73,6-2.28,7.39-9.35,12.31-12.79C427.31,458.78,430.55,454,436.42,454Z" transform="translate(-220.41 -277.13)"/><path class="cls-1" d="M286.17,525.17l13.08,28.27c-.48,1.27-.75,2.78-2.61,2.55l-21.42-42.35a5,5,0,0,1,4.68-1.52C286.17,514.33,286,519.82,286.17,525.17Z" transform="translate(-220.41 -277.13)"/><path class="cls-14" d="M353.08,279.75c-3.61.4-7.42-.62-10.79,1.59-3.12,5.08-8.75,6.05-13.34,8.73-4.69,1.11-9,5.44-14.25,1.74-2.77-6.48,1.81-8.06,6.15-9.79C331.24,275.87,342,276,353.08,279.75Z" transform="translate(-220.41 -277.13)"/><path class="cls-15" d="M320.85,282l-6.48,8.75c-.53,2.35-2.12,3.33-4.31,3.56-3.44-1.71-6.63,1-10,.66a6.44,6.44,0,0,1-2.7-1.13c-2.93-5.21,2.34-6.7,4.19-9.74C307.64,280,314,278.3,320.85,282Z" transform="translate(-220.41 -277.13)"/><path class="cls-16" d="M301.56,284.12c2.05,4.81-3.66,5.54-4.4,8.88-1.29,3.35-3.27,4.5-6.36,2.13l-4.18-6.35A37.54,37.54,0,0,1,301.56,284.12Z" transform="translate(-220.41 -277.13)"/><path class="cls-1" d="M280.28,514.09l-5-.45q-4.35-8.75-8.68-17.48a4.25,4.25,0,0,1,2.8-1.58c7.7,2.63,10.89,8.84,12.31,16.46A5,5,0,0,1,280.28,514.09Z" transform="translate(-220.41 -277.13)"/><path class="cls-17" d="M269.69,495.88l-3.14.28c-3.51-3.76-6.57-7.8-7.76-13l8.08,6.58C269.21,491.09,271,492.72,269.69,495.88Z" transform="translate(-220.41 -277.13)"/><path class="cls-1" d="M361.21,583.84a4.62,4.62,0,0,1-5.09-3s0-.6,0-.61c3.34-.23,4.41-3.83,7.08-5,2.14-.5,3.21.16,2.61,2.6C364.26,579.78,362.74,581.81,361.21,583.84Z" transform="translate(-220.41 -277.13)"/><path class="cls-17" d="M410.49,487.14c1.49-1.34,2-5.1,5.19-2.22-.08.77-.15,1.54-.23,2.31q-3.19,4.63-6.4,9.26a2.39,2.39,0,0,1-3-.11C404,491.47,407,489.18,410.49,487.14Z" transform="translate(-220.41 -277.13)"/><path class="cls-18" d="M290.8,295.13l6.36-2.13,2.3.08c2.22,5.46-1.57,9.1-4,12.92-5.95,9.38-8.33,19.95-11.49,30.49-4.73,15.82-7.42,33-19.67,45.48-4.41,2.32-8.41,1.76-12-1.8-8.25-14.33-4.2-28.56.38-42.77C260.64,318.75,276.46,307.64,290.8,295.13Z" transform="translate(-220.41 -277.13)"/><path class="cls-19" d="M252.69,337.4c-.09,10-.14,20.06-.28,30.09,0,4,.23,8,2.17,11.61-.09,3.7-1.33,6.58-5.1,7.69a7.87,7.87,0,0,1-6.14-2.69c-4.42-7.19-3.34-14.8-1.59-22.46,0-1.55,0-3.1,0-4.66C244.66,350,247.4,343,252.69,337.4Z" transform="translate(-220.41 -277.13)"/><path class="cls-20" d="M368.31,332.68q2,6.65,4,13.3c9.18,11.67,6.86,25.93,8.09,39.33.26,2.77-.64,5.72-.35,8.61,1,5.2,1.44,10.34-1.61,15.05a4.48,4.48,0,0,1-2.78,1.83c-8-3.77-4-12.1-6.74-19.73-9,30.71-26.37,56.28-33.53,86.24-.92,3.83-2.08,7.8-5.46,10.42a4.57,4.57,0,0,1-3.35.18,8.57,8.57,0,0,1-4.62-7.47c1.78-9.79-4.78-19.58,0-29.37,17.9-27.59,26.13-58.7,31.1-91a122,122,0,0,0,1.68-22.91,25.76,25.76,0,0,1,1.36-9.73c1-2.84,2.57-5.75,5.71-5.83,3.59-.1,3.9,3.66,4.86,6.24C367.24,329.42,366.45,331.52,368.31,332.68Z" transform="translate(-220.41 -277.13)"/><path class="cls-21" d="M351.3,292.87c2.14,1.78,3.89,3.8,3.92,6.86-5.49,5.35-5.16,12.57-5.4,19.37-.51,15,.07,29.95-2,45a96.27,96.27,0,0,1-12.94,36.74c-4.7,7.91-11.9,12.58-21.67,10.51-6.76-6.88-5.1-14.5-1.38-21.94,7.7-15.42,17.83-29.49,19.14-48,1-13.71,3.67-27.4,6.19-41C339.07,290.27,343.44,288.09,351.3,292.87Z" transform="translate(-220.41 -277.13)"/><path class="cls-22" d="M314.37,409.92c21.84-6.45,25.83-25.86,29.87-44.74,4.07-19,1.37-38.61,3-57.88.48-5.53,1.08-9.75,8-7.57a4.35,4.35,0,0,1,.36,1.82c-.37,32.52-2.24,64.88-10.05,96.58-3.32,13.45-6.78,26.85-14.72,38.42-3.14,4.59-3.21,10.39-5.62,15.27-4.45,9.52,2.26,19.12-.19,28.66-8.76-4.57-6.43-14.36-8.72-21.63-2-6.46-3.45-13.37-5.44-20a25.57,25.57,0,0,1-.56-7.85C312.61,424.17,308.86,416.07,314.37,409.92Z" transform="translate(-220.41 -277.13)"/><path class="cls-23" d="M325.19,451.82c-.65-8.29,1-15.1,6.69-22.07,9.21-11.33,10.07-26.52,12.17-40.48,3.8-25.26,7.13-50.68,6.74-76.38-.07-4.56.22-8.89,4.78-11.34,7.94,8.76,11,19.64,12.74,31.13l-6-9.47c-4.61,4.34-3.54,10-3.48,14.5.38,30.78-9,59.14-19.66,87.15C335.58,434.33,332.71,444.42,325.19,451.82Z" transform="translate(-220.41 -277.13)"/><path class="cls-24" d="M327.62,286.52c4.48-3,9.27-5,14.67-5.18l2,2.91c-8.27,15.05-7.07,32.29-10.34,48.48-2.12,10.51-4.47,20.53-11.73,28.52-3,3.32-6,7.68-11.46,3.92-4.18-11.94-.13-23.43,1.92-35,1.19-6.73,3.34-13.3,2.94-20.27C316,300.13,321.7,293.27,327.62,286.52Z" transform="translate(-220.41 -277.13)"/><path class="cls-25" d="M312.26,365.82c17.22-14.31,20.95-34.71,23.54-55.61.76-6.16,1.4-12.33,2-18.5.42-4.12,2.17-6.93,6.45-7.46a14.93,14.93,0,0,1,7,8.62c-8.33-3.37-9.94,2.75-11,8.73-2.32,13.65-5.54,27.32-6,41.07-.57,17.1-6.76,31-16.83,43.86-5.49,7-7.31,14.85-3.14,23.39q0,11.07,0,22.15c-3.6.19-5-2.51-5.76-5.29-4.85-18.62-2-37.29,0-55.94A6.61,6.61,0,0,1,312.26,365.82Z" transform="translate(-220.41 -277.13)"/><path class="cls-26" d="M377.07,394.55q-2.4-24.29-4.78-48.57c7.74,7.78,15.58,3,23.4.18,3.09,4.82,1.88,10.32,2.31,15.56,3.92,3.81,3.4,8.71,2.56,13.32C398.93,384,386.08,394.44,377.07,394.55Z" transform="translate(-220.41 -277.13)"/><path class="cls-27" d="M280.28,514.09a12.77,12.77,0,0,0-.27-2.15c6.3-3.64,11.27,3.52,17.28,2.23,5.25-2.1,10.5-1,15.76,0a10.84,10.84,0,0,1,6.05,2.69c8.36,16,5.95,22.48-11.23,30h-1l-1-.06c-6.77-7-10.15-17.24-19.65-21.57Z" transform="translate(-220.41 -277.13)"/><path class="cls-28" d="M307.87,546.79a3.66,3.66,0,0,1,.59-.91c8.5-7,14.85-14.79,10.16-27,.5-2,2-3.08,3.7-3.87,4.23-2,8.38-2.35,12.35.69,2.88,4.54,5.26,9.31,6.15,14.72,1.24,7.6-.94,13.5-8.06,16.86-7.5.8-15.21-1.66-22.58,1.48Z" transform="translate(-220.41 -277.13)"/><path class="cls-29" d="M381.78,520.27l-18.17,28.66-4.11.14a62,62,0,0,1-25.87-.13c.54-6,5.64-6.57,9.21-6.25,15.79,1.46,22.2-8.12,25.75-21.71a12.09,12.09,0,0,1,1.46-2.92c1.37-2.16,3.51-3.22,5.67-4.26a7.81,7.81,0,0,1,5.29,0,5.81,5.81,0,0,1,2.67,2.33C384.06,518,384.15,519.73,381.78,520.27Z" transform="translate(-220.41 -277.13)"/><path class="cls-30" d="M334.09,547.08c8.25,3.6,17,.5,25.4,2-16.46,4.42-32.88.7-49.31-.34,6.51-4.59,13.86-4.49,21.26-4.06C332.48,545.29,333.82,545.56,334.09,547.08Z" transform="translate(-220.41 -277.13)"/><path class="cls-12" d="M350.54,591.12c-.31,5.76,1.95,11.83-1.88,17.18C350.61,602.72,343.61,596.11,350.54,591.12Z" transform="translate(-220.41 -277.13)"/><path class="cls-31" d="M271.8,474.61c-.9-5.36-4.68-9.24-6.8-14-8.1-16.25-14.59-33-15.95-51.49-.3-4-1-8,1.69-11.51,4.95-3.59,6.75,1.1,8.59,4a47.53,47.53,0,0,0,7.73,9.79c3.21,4.91,2.38,10.47,2.72,16,.87,14.11.47,28.59,8.54,41.13,4.66,7.12,9.33,14.24,13.7,21.56,2.38,3.82,4.81,7.62,1.92,12.31-11.46.37-11.73-11.16-16.9-17.36C274.71,482.22,274.46,477.64,271.8,474.61Z" transform="translate(-220.41 -277.13)"/><path class="cls-32" d="M252.51,396.86C252,415.39,256,433,262.76,450c1.32,3.36,2.8,6.78,2.24,10.6-4.43-3.4-5.89-8.87-8.75-13.37-6.27-9.48-13.47-18.51-14.05-30.76,1.23-8.35-6.27-15.34-3.55-23.92.37-4.78,2.18-8.33,7.26-9.11l4.36,2.3C254.7,388.68,256.17,392.22,252.51,396.86Z" transform="translate(-220.41 -277.13)"/><path class="cls-33" d="M245.91,416.58q5.18,15.35,10.34,30.7c-.6-.4-1.19-.81-1.79-1.19-3.16-2-5-7.65-9.35-6-5.07,1.93-2.88,7.52-3.36,11.67-8.89-14.22-9.26-30.06-8.34-46.16C243.06,402.61,242.75,411.71,245.91,416.58Z" transform="translate(-220.41 -277.13)"/><path class="cls-34" d="M271.8,474.61c8.37,8.23,13.74,18.88,21.18,27.86,8.44,2.94,9,8.5,4.85,15.6-7.09,1.5-12.64-1.74-17.82-6.14l-10.32-16.05-2.82-6.16,2.61-.21c10,4,.69-5.91,4.36-6.49Z" transform="translate(-220.41 -277.13)"/><path class="cls-35" d="M273.84,483c.39.6.81,1.2,1.18,1.82,2.66,4.51,11.52,9,5.09,13.92-5.28,4.06-6.93-6-10.63-9.25C267.2,484.67,268.68,482.54,273.84,483Z" transform="translate(-220.41 -277.13)"/><path class="cls-36" d="M436.42,454a171.67,171.67,0,0,1-23.5,22.34,6.44,6.44,0,0,1-1.56-8.76c8.11-13.72,12.55-29.53,22.56-42.15,7.7-26.55,7.25-53.11,0-79.67.51-2.4-.14-5.69,2.79-6.54,3.36-1,3.81,2.54,4.82,4.63,11.8,24.3,15.35,50,9.06,76.25C447.79,431.93,441.26,442.77,436.42,454Z" transform="translate(-220.41 -277.13)"/><path class="cls-1" d="M405.57,495.9l3.49.59L374.4,562.2c-2.1.51-3.25.06-2.37-2.47q9.95-20.9,19.88-41.8c4.57-10,4.55-10.61,5.48-16.4C399.3,498.4,401.49,495.67,405.57,495.9Z" transform="translate(-220.41 -277.13)"/><path class="cls-1" d="M372,559.73l2.37,2.48c-1.58,5.94-5.11,10.73-8.61,15.55l-2.61-2.6Z" transform="translate(-220.41 -277.13)"/><path class="cls-37" d="M421.37,330.69c2.8,2.28,3.85,5.43,4.2,8.93,1.68,4.77,2.45,9.83,4.3,14.55,2.64,15.5-1.26,29.65-8.53,43.06-1.2,2.22-3.26,4-3.66,6.63-1.81,11.69-9.32,13.43-18.9,11.77a5.05,5.05,0,0,1-2.66-2.35c-1.69-8.77,1.84-17.61-.35-26.39,3.75-8.05,2.25-17,4.2-25.38v-20c4.52-.74,4.82,3.17,6,5.95s1.06,6.48,4.83,8C418,348.89,414.3,337.27,421.37,330.69Z" transform="translate(-220.41 -277.13)"/><path class="cls-38" d="M421.37,330.69c1.48,9.41-2.51,17.78-4.77,26.47-.63,2.43-1.49,5.09-4.32,5.72-3.33.74-5-1.91-6.91-4-4.44-4.91-1.55-12.22-5.4-17.3-3.56-9.49-7.15-19-10.67-28.48-1.12-3.06-5.85-5.81-1.72-9.44,3.33-2.92,7.24-1.83,10.93.19a40.15,40.15,0,0,0,5.86,2.15C410.85,313.61,418.25,320.59,421.37,330.69Z" transform="translate(-220.41 -277.13)"/><path class="cls-39" d="M400,361.51l-.3,26.81c-1.51,9,.23,18.61-4.64,27-4.37,1.24-8.79,2.37-13.17,3.47-7.42,1.87-9-1.57-5.56-8.15q.39-8.06.76-16.1c6.13-4.18,10.74-10.15,17-14.39,6-4.07,3.19-12.09,3.95-18.44C398.65,361.62,399.31,361.55,400,361.51Z" transform="translate(-220.41 -277.13)"/><path class="cls-40" d="M427.78,354.88c-1.14-5-2.7-10-2.21-15.26,12.53,21.69,12.71,45.15,9.32,69.12-.77,5.4-3.53,10.43-2.81,16.11-.3,8.44-5.58,14.82-8.57,22.16a47,47,0,0,0-3.88,3.72c-4.53,4.68-8.92,10.09-16.4,6.54-7-3.33-11.23-8.72-10.32-17.25,2-3.87.78-9.94,7.07-10.78,9.78,6.89,15,6.85,17.23-2.63C422.83,403.11,430.85,379.8,427.78,354.88Z" transform="translate(-220.41 -277.13)"/><path class="cls-41" d="M421.15,445c5.78-5.48,6.6-13.83,10.93-20.16a4.37,4.37,0,0,0,1.85.62c-3.19,11.78-7.08,23.25-14.46,33.07-4,5.28-6.49,11.06-6.55,17.84-2.2,3.27-4.89,6.32-4.52,10.73-2.54,7.26-8.67,11.81-12.7,17.95-2.94,5.48-8.25,8.18-12.91,11.65l-2.37-1.17c-3.73-7.14,1.63-12.14,3.9-17.89a41.76,41.76,0,0,1,4.43-6.41A326,326,0,0,1,421.15,445Z" transform="translate(-220.41 -277.13)"/><path class="cls-42" d="M245.91,416.58c-4.47-3.28-6.62-9.39-12.5-10.95,1.57-7.38.92-15.17,4-22.27,5.24,1,2.16,6.31,4.3,8.92C240,401,247,408,245.91,416.58Z" transform="translate(-220.41 -277.13)"/><path class="cls-43" d="M241.67,392.28q-2.14-4.45-4.3-8.92c0-3.59,0-7.19.08-10.78q2.15-5.47,4.3-10.94c-.39,7.64,1.74,14.77,4.16,21.84Z" transform="translate(-220.41 -277.13)"/><path class="cls-44" d="M395.7,505.06c2.47-7.31,7.12-13,12.7-17.94l2.09,0-4.91,8.76c-1.81,2.25-3.6,4.5-5.4,6.75Z" transform="translate(-220.41 -277.13)"/><path class="cls-45" d="M327.62,286.52,319,308.6c-2.53,16.45-7.89,32.15-9.35,49.07-1.55,18-1,36.44-6.44,54.19-4.64,15.23-2.07,30.24,4.6,44.72,3.39,7.37,7.89,15.49-.75,22.76-5.81.59-6.25-4.52-8.09-8.13-.35-5.39-2.84-9.94-5.43-14.45-5.4-15.57-9.11-31.64-13.33-47.58-.14-5.63-.26-11.26,0-16.89,1.73-7.25,1.52-14.6.62-21.88-2.37-19.37,3.06-36.81,11.78-53.52a26.51,26.51,0,0,0,10-16.06c1.55-3.58,3.2-7.08,7.62-7.59l4.11-2.47C319.4,291.39,323.27,288.15,327.62,286.52Z" transform="translate(-220.41 -277.13)"/><path class="cls-46" d="M297.1,317.11c-10.23,18.23-13.64,38-12.71,58.84.24,5.45-.09,10.93-.15,16.4-8.81-2.75-.56-9.45-3.07-12.66-1.46,15.71-1.81,16.29-12,18.63-7.47-4.57-7.36-11.65-6-19.15,7.62-15.12,14.19-30.61,17.17-47.56,2.59-14.76,9.84-27.22,19.11-38.53,3.62-1.19,7.31-8.46,10.8.16q-2.29,4.23-4.58,8.48C302.76,306.81,300.4,312.24,297.1,317.11Z" transform="translate(-220.41 -277.13)"/><path class="cls-47" d="M263.18,379.17c5.19,4.69,2.72,12.32,6.35,17.61,3,6.48,1.92,11.71-4.3,15.44-9.65-.36-8.55-10.19-12.72-15.36q-1.12-5.55-2.24-11.08a7.65,7.65,0,0,1,4.31-6.68A7.52,7.52,0,0,0,263.18,379.17Z" transform="translate(-220.41 -277.13)"/><path class="cls-48" d="M329.49,487.22a163.56,163.56,0,0,1,13.93-45.82c8-16.83,15.87-33.61,21.43-51.49,1-3.29,1.44-8.38,6.17-7.53s3,5.91,3.17,9.26c.37,6.23.31,12.49.43,18.74,5.09,15.82.67,30.54-4.91,45.12-7.19,10.34-8.44,23.15-13.39,34.45-4.81,11-12.63,14.68-23.8,10.46C328.89,496.66,327.15,492.43,329.49,487.22Z" transform="translate(-220.41 -277.13)"/><path class="cls-49" d="M333.19,516.76l-10.23,1c-12.84-6.53-14.8-19.26-17.08-31.82,7.42-9.84,7.22-20.84,5.06-32.38-1-5.3-1.67-11.1,3.7-15,5.5,13.44,5.25,28.38,10.36,41.92l2.28,6.93c2.46,8.24,7.6,15.39,9.08,24a7.9,7.9,0,0,1-.72,3.25A4.35,4.35,0,0,1,333.19,516.76Z" transform="translate(-220.41 -277.13)"/><path class="cls-50" d="M366.17,454.21c4.86-14.19,8-28.73,8.45-43.83a2.35,2.35,0,0,1,1.68.26c1.28,1.6-2.21,8.61,4.52,4.06,4-2.72,8.42-3.92,12.74-.29,3.86,8.54-.26,15.87-4.56,22.13-10.91,15.93-18.28,33.43-24.76,51.57-1.73,4.86-1.75,12.19-9.55,12.59a5.82,5.82,0,0,1-1.55-4.83C358,482.15,361.68,468.05,366.17,454.21Z" transform="translate(-220.41 -277.13)"/><path class="cls-51" d="M333.83,513.43c-3.1-8.43-5.9-16.94-6.55-26l2.21-.19,4.39,11.07c2.37,4.43,8.47,7.26,5.61,13.93C338,514.35,336.27,515.8,333.83,513.43Z" transform="translate(-220.41 -277.13)"/><path class="cls-52" d="M314.64,438.56c0,3.65-.76,7.5.07,10.94,3.32,13.65,3.12,26.51-6,38-4.88-1.66-5.56-4.72-2.79-8.92,3.42-4.77,2.82-10,.31-14.55-11.79-21.54-12.8-43.25-3.58-66.22,3.47-8.64,1.39-18.77,2.87-28.25,2.74-17.54,5-35.15,9-52.45.78-3.3,1.62-6.38,4.4-8.49.75,14.82-5.84,28.45-6.58,43-.23,4.72-.08,9.47-.11,14.2-2.71,22.2-3.83,44.34,2.09,66.25Q314.5,435.31,314.64,438.56Z" transform="translate(-220.41 -277.13)"/><path class="cls-53" d="M297.18,456.42c1.86,4.3,4.75,8.24,4.34,13.32.66,12.16,5,23.18,10.34,33.77,2.46,4.9,3.88,9.29.45,14.13-4.86-1-9.71-1.5-14.48.43.41-5.87-1.63-10.93-4.85-15.6.86-4.54-2.5-7.39-4.11-11,2.63-7.87,3.06-16,3.09-24.27C292,462.93,290.59,457.52,297.18,456.42Z" transform="translate(-220.41 -277.13)"/><path class="cls-54" d="M312.31,517.64C310.7,504.37,303,493.06,301,479.89c-.54-3.53-2.59-6.92.54-10.15q2.19,4.41,4.4,8.82a12.44,12.44,0,0,0,2.79,8.92c3.13,10.9,6.78,21.55,14.25,30.28l-4.34,1.09Z" transform="translate(-220.41 -277.13)"/><path class="cls-55" d="M334.09,547.08l-2.64-2.41c6.34-3,7.64-7.77,5.36-14.32-1.53-4.41-2.43-9.06-3.62-13.59.23-.34.46-.69.7-1,4.47-1.85,9.15-.49,13.71-.91a55.6,55.6,0,0,0,13.59-1.35c4.71-1.18,9.22-1.05,11,5-3.59,24.69-9.93,29.74-28.57,28.49C340.44,546.78,337.26,547,334.09,547.08Z" transform="translate(-220.41 -277.13)"/><path class="cls-56" d="M372.16,518.5c-8.07-6.06-16.51,2.62-24.65-.68-2.2-1.59-.43-2.64.49-3.81,1.78-1.28,4-1.3,5.91-2.28,6.49-.66,8.25-6.34,10.61-11.08,4.87-9.74,9-19.85,14.66-29.2,1.53-2.56,2.65-5.23,6.11-5.2,6.74,8,6.1,17.65,5.44,27.26l-3.82,5.81c-5,4.79-8.14,10.76-10.63,17.18Z" transform="translate(-220.41 -277.13)"/><path class="cls-1" d="M376.28,516.5c-2.16-9.49,4.59-13.12,10.64-17.19q-3.26,8.13-6.5,16.23Z" transform="translate(-220.41 -277.13)"/><path class="cls-57" d="M265.23,412.22q2.16-7.73,4.3-15.44c10.34-4.29,9.26-14.84,11.77-24.22,2.48,7-1,14,2.94,19.79l.45,17.52c-2.26,7.72-.1,15,2.31,22.19.83,2.46,2.42,5,1.27,7.31-5.15,10.39-7.24,22-12.34,32.38-8.83-13.86-10.45-29.51-10.6-45.52C265.28,421.56,265.26,416.89,265.23,412.22Z" transform="translate(-220.41 -277.13)"/><path class="cls-58" d="M275.93,471.75c-.39-2.52-1.18-5.06-1.09-7.56.37-10.35,9.58-18.1,10-27.12.4-8.79-4.83-17.94-.14-27.2,1.7,16.22,9.27,30.77,12.49,46.55-4.34,8.57,1.83,17.78-1.73,26.68-1.54,3.84-1.53,7.91-6.58,8.42Z" transform="translate(-220.41 -277.13)"/><path class="cls-59" d="M427.78,354.88c4.29,10.23,2.94,21.18,1.78,31.42-1.63,14.35-2.78,29.05-7.91,42.77-1.64,4.39-3.67,8.3-9.07,9.88-8.46,2.47-13.38,1.35-12.63-9.06-4.28-5.16-4-10.32,0-15.46.64-4,1.81-6.49,6-2.85,2.14,1.85,5.22,2.2,6-1.19C416.45,391.62,431.26,376,427.78,354.88Z" transform="translate(-220.41 -277.13)"/><path class="cls-60" d="M355.46,515.71l-6.14.23c-4.89-7.92-.53-12.09,5.87-15.44,7.18-10.58,8.86-23.53,13.74-35.13,4.55-10.79,9.45-20.78,16.58-29.84,4.79-6.09,6.1-13.78,8.05-21.12,5.67-7.8,2.44-17.81,6.11-26.1,1.48,8.86-.92,17.54-1.07,26.32,1.3,9.5-1.6,18.15-5.09,26.68-8.39,23.44-24.45,42.91-32.48,66.56C360,510.94,358.54,514,355.46,515.71Z" transform="translate(-220.41 -277.13)"/><path class="cls-61" d="M391.47,440.85c4.34-8.17,5.84-17.16,7.12-26.22a13.11,13.11,0,0,1,1.38-.2q0,7.72,0,15.46l-4.21,10.89c-1.17,1.58-2.13,3.59-4.66,2.56A1.66,1.66,0,0,1,391.47,440.85Z" transform="translate(-220.41 -277.13)"/><path class="cls-62" d="M391.79,443.28l3.95-2.5c-.13,7.79,4.7,12,10.88,14.19,5.54,2,7.41-4.14,10.82-6.84,1.26-1,1.25-3.63,3.71-3.12a284.26,284.26,0,0,1-30.42,48.5c-5.35-7.93-4.9-17.27-6-26.24C382,457.67,387.67,450.72,391.79,443.28Z" transform="translate(-220.41 -277.13)"/><path class="cls-14" d="M297.1,317.11c.84-6.33,4.24-11.14,8.58-15.39C304.5,307.85,302.84,313.69,297.1,317.11Z" transform="translate(-220.41 -277.13)"/><path class="cls-63" d="M338.11,511.37l-4.23-13.08c12.54,1.92,19.39-3.91,23.18-19.9,2-8.49,4.27-16.84,9.11-24.18-1.33,14.64-6.45,28.18-11.4,41.78-1.91,4.3-3,9-5.48,13C346.43,513.65,342.9,515.94,338.11,511.37Z" transform="translate(-220.41 -277.13)"/><path class="cls-64" d="M338.11,511.37c6.08,1.13,9.94-1.52,11.93-7.41,1-3,1.78-6.18,4.73-8l.42,4.51c-2.33,5-5.82,9.52-5.87,15.44-.61.63-1.22,1.25-1.82,1.88l-13.61-2.09-.06-2.3A4.58,4.58,0,0,0,338.11,511.37Z" transform="translate(-220.41 -277.13)"/><path class="cls-65" d="M391.79,443.28q-3.53,12-7.06,24c-5.94,12.27-11.6,24.69-17.94,36.74-2.54,4.84-4.47,11-11.33,11.7,5.17-21.27,15.48-40,27.31-57.92,3.54-5.36,2.53-13.1,8.7-16.94C391.58,441.66,391.68,442.47,391.79,443.28Z" transform="translate(-220.41 -277.13)"/></svg>